<svg width="341" height="276" viewBox="0 0 341 276" fill="none" xmlns="http://www.w3.org/2000/svg">
<path d="M42.4046 262.385C50.5992 237.004 82.5153 181.242 144.622 161.241C222.256 136.238 235.195 152.149 271.424 118.055C300.407 90.7801 329.217 43.8064 340 23.729" stroke="#929292"/>
<path d="M1 239.656C9.19465 214.275 41.1107 158.513 103.218 138.512C180.851 113.509 193.79 129.42 230.019 95.3261C259.002 68.0511 287.813 21.0774 298.595 1" stroke="#8B8B8B"/>
<path d="M85.2101 243.203V184.357C85.2068 183.553 85.0447 182.761 84.7359 182.039C84.4271 181.316 83.9795 180.682 83.4263 180.184C82.8809 179.681 82.2436 179.324 81.5613 179.139C80.8789 178.954 80.1688 178.945 79.4832 179.114L37.2357 189.814C36.1928 190.082 35.2613 190.747 34.5955 191.701C33.9297 192.654 33.5694 193.838 33.5743 195.056V239.672C30.3697 237.948 26.761 237.455 23.2895 238.266C19.818 239.077 16.6709 241.15 14.3204 244.172C11.9698 247.194 10.5425 251.003 10.2526 255.028C9.96271 259.053 10.8258 263.077 12.7125 266.496C14.5991 269.914 17.4075 272.544 20.7165 273.989C24.0254 275.435 27.6564 275.619 31.0648 274.513C34.4731 273.408 37.4751 271.072 39.6203 267.858C41.7654 264.643 42.9382 260.723 42.9626 256.684C43.0111 255.758 43.0111 254.829 42.9626 253.903V199.336L75.8217 191.044V228.973C72.6154 227.248 69.0044 226.755 65.5312 227.568C62.058 228.381 58.91 230.456 56.56 233.482C54.2099 236.508 52.7848 240.321 52.4984 244.349C52.2121 248.376 53.0801 252.401 54.9721 255.819C56.864 259.236 59.6778 261.862 62.9909 263.302C66.304 264.741 69.9375 264.917 73.3457 263.803C76.7539 262.688 79.7529 260.344 81.8922 257.121C84.0316 253.899 85.1958 249.972 85.2101 245.932C85.2546 245.023 85.2546 244.112 85.2101 243.203Z" fill="url(#paint0_linear_466_91)"/>
<path d="M213.159 257.866V224.765C213.157 224.313 213.062 223.868 212.881 223.461C212.7 223.055 212.438 222.698 212.113 222.418C211.794 222.135 211.42 221.935 211.02 221.83C210.62 221.726 210.204 221.721 209.802 221.816L185.036 227.835C184.425 227.985 183.879 228.36 183.488 228.896C183.098 229.432 182.887 230.098 182.89 230.784V255.88C181.011 254.91 178.896 254.633 176.861 255.089C174.826 255.546 172.981 256.711 171.603 258.411C170.225 260.111 169.388 262.254 169.218 264.518C169.048 266.782 169.554 269.045 170.66 270.968C171.766 272.891 173.412 274.37 175.352 275.183C177.292 275.997 179.42 276.1 181.418 275.478C183.416 274.856 185.176 273.543 186.434 271.735C187.691 269.926 188.379 267.721 188.393 265.449C188.422 264.928 188.422 264.406 188.393 263.885V233.191L207.655 228.527V249.862C205.776 248.892 203.659 248.614 201.623 249.071C199.587 249.529 197.742 250.696 196.364 252.398C194.986 254.1 194.151 256.245 193.983 258.511C193.815 260.776 194.324 263.04 195.433 264.963C196.542 266.885 198.192 268.362 200.134 269.172C202.076 269.981 204.206 270.08 206.204 269.454C208.202 268.827 209.96 267.508 211.214 265.695C212.468 263.883 213.151 261.674 213.159 259.401C213.185 258.89 213.185 258.377 213.159 257.866Z" fill="url(#paint1_linear_466_91)"/>
<path d="M339.987 81.2902V58.8808C339.985 58.5748 339.92 58.273 339.796 57.9979C339.671 57.7228 339.491 57.4814 339.268 57.2917C339.049 57.1003 338.792 56.9643 338.517 56.8938C338.242 56.8233 337.956 56.82 337.68 56.8843L320.667 60.9587C320.247 61.0608 319.872 61.3143 319.604 61.6774C319.336 62.0404 319.191 62.4912 319.193 62.9552V79.9457C317.902 79.2891 316.449 79.1012 315.051 79.4101C313.653 79.7191 312.386 80.5082 311.439 81.6591C310.493 82.81 309.918 84.2607 309.801 85.7935C309.684 87.3262 310.032 88.8585 310.792 90.1604C311.551 91.4622 312.682 92.4635 314.015 93.014C315.347 93.5645 316.81 93.6345 318.182 93.2135C319.555 92.7925 320.764 91.9032 321.628 90.6791C322.491 89.455 322.964 87.962 322.973 86.424C322.993 86.0712 322.993 85.7175 322.973 85.3647V64.585L336.206 61.4273V75.8712C334.915 75.2143 333.461 75.0265 332.062 75.3361C330.663 75.6457 329.396 76.436 328.449 77.5883C327.503 78.7406 326.929 80.1927 326.814 81.7265C326.698 83.2603 327.048 84.793 327.81 86.0944C328.572 87.3959 329.705 88.3958 331.039 88.944C332.373 89.4922 333.836 89.5592 335.209 89.1348C336.581 88.7104 337.789 87.8176 338.65 86.5904C339.512 85.3633 339.981 83.868 339.987 82.3292C340.004 81.9832 340.004 81.6363 339.987 81.2902Z" fill="url(#paint2_linear_466_91)"/>
<defs>
<linearGradient id="paint0_linear_466_91" x1="57.6617" y1="197.185" x2="-5.94191" y2="453.251" gradientUnits="userSpaceOnUse">
<stop stop-color="#D1D1D1"/>
<stop offset="1" stop-color="#D1D1D1" stop-opacity="0"/>
</linearGradient>
<linearGradient id="paint1_linear_466_91" x1="190.87" y1="198.509" x2="190.87" y2="348.017" gradientUnits="userSpaceOnUse">
<stop stop-color="#D1D1D1"/>
<stop offset="1" stop-color="#D1D1D1" stop-opacity="0"/>
</linearGradient>
<linearGradient id="paint2_linear_466_91" x1="325.216" y1="41.723" x2="325.216" y2="99.2772" gradientUnits="userSpaceOnUse">
<stop stop-color="#D1D1D1"/>
<stop offset="1" stop-color="#D1D1D1" stop-opacity="0"/>
</linearGradient>
</defs>
</svg>
