<svg width="88" height="88" viewBox="0 0 88 88" fill="none" xmlns="http://www.w3.org/2000/svg">
<path d="M43.9 5.4875C33.7124 5.4875 23.942 9.53452 16.7383 16.7383C9.53452 23.942 5.4875 33.7124 5.4875 43.9V49.3875H13.7187C14.4464 49.3875 15.1443 49.6766 15.6589 50.1911C16.1734 50.7057 16.4625 51.4036 16.4625 52.1312V85.0562C16.4625 85.7839 16.1734 86.4818 15.6589 86.9964C15.1443 87.5109 14.4464 87.8 13.7187 87.8H10.975C8.06425 87.8 5.27271 86.6437 3.2145 84.5855C1.15629 82.5273 0 79.7357 0 76.825V43.9C0 32.257 4.62517 21.0909 12.858 12.858C21.0909 4.62517 32.257 0 43.9 0C55.543 0 66.7091 4.62517 74.942 12.858C83.1748 21.0909 87.8 32.257 87.8 43.9V76.825C87.8 79.7357 86.6437 82.5273 84.5855 84.5855C82.5273 86.6437 79.7357 87.8 76.825 87.8H74.0812C73.3536 87.8 72.6557 87.5109 72.1411 86.9964C71.6266 86.4818 71.3375 85.7839 71.3375 85.0562V52.1312C71.3375 51.4036 71.6266 50.7057 72.1411 50.1911C72.6557 49.6766 73.3536 49.3875 74.0812 49.3875H82.3125V43.9C82.3125 33.7124 78.2655 23.942 71.0617 16.7383C63.858 9.53452 54.0876 5.4875 43.9 5.4875V5.4875ZM46.6437 46.6437C46.6437 45.9161 46.3547 45.2182 45.8401 44.7036C45.3256 44.1891 44.6277 43.9 43.9 43.9C43.1723 43.9 42.4744 44.1891 41.9599 44.7036C41.4453 45.2182 41.1562 45.9161 41.1562 46.6437V85.0562C41.1562 85.7839 41.4453 86.4818 41.9599 86.9964C42.4744 87.5109 43.1723 87.8 43.9 87.8C44.6277 87.8 45.3256 87.5109 45.8401 86.9964C46.3547 86.4818 46.6437 85.7839 46.6437 85.0562V46.6437ZM30.1812 54.875C30.9089 54.875 31.6068 55.1641 32.1214 55.6786C32.6359 56.1932 32.925 56.8911 32.925 57.6187V79.5687C32.925 80.2964 32.6359 80.9943 32.1214 81.5089C31.6068 82.0234 30.9089 82.3125 30.1812 82.3125C29.4536 82.3125 28.7557 82.0234 28.2411 81.5089C27.7266 80.9943 27.4375 80.2964 27.4375 79.5687V57.6187C27.4375 56.8911 27.7266 56.1932 28.2411 55.6786C28.7557 55.1641 29.4536 54.875 30.1812 54.875V54.875ZM60.3625 57.6187C60.3625 56.8911 60.0734 56.1932 59.5589 55.6786C59.0443 55.1641 58.3464 54.875 57.6187 54.875C56.8911 54.875 56.1932 55.1641 55.6786 55.6786C55.1641 56.1932 54.875 56.8911 54.875 57.6187V79.5687C54.875 80.2964 55.1641 80.9943 55.6786 81.5089C56.1932 82.0234 56.8911 82.3125 57.6187 82.3125C58.3464 82.3125 59.0443 82.0234 59.5589 81.5089C60.0734 80.9943 60.3625 80.2964 60.3625 79.5687V57.6187Z" fill="#FAFAFA"/>
</svg>
