<svg width="79" height="88" viewBox="0 0 79 88" fill="none" xmlns="http://www.w3.org/2000/svg">
<path d="M78.9648 58.7165V4.90439C78.9614 4.16959 78.7908 3.44498 78.4657 2.78439C78.1406 2.1238 77.6694 1.5442 77.0871 1.08862C76.513 0.62888 75.8421 0.302348 75.1238 0.133032C74.4055 -0.0362835 73.658 -0.0440776 72.9362 0.110222L28.4627 9.89424C27.3648 10.1394 26.3843 10.7482 25.6834 11.6199C24.9825 12.4917 24.6032 13.5742 24.6083 14.6884V55.4878C21.2349 53.9112 17.436 53.4599 13.7816 54.2018C10.1272 54.9436 6.81433 56.8385 4.33992 59.6022C1.86551 62.3659 0.363013 65.8494 0.0578256 69.5301C-0.247362 73.2108 0.661218 76.8902 2.64726 80.0164C4.63331 83.1426 7.58973 85.547 11.073 86.8689C14.5563 88.1907 18.3786 88.3588 21.9666 87.3479C25.5545 86.337 28.7147 84.2016 30.9729 81.2621C33.2311 78.3225 34.4656 74.7373 34.4913 71.0444C34.5424 70.1972 34.5424 69.3477 34.4913 68.5005V18.602L69.0818 11.0194V45.7038C65.7065 44.1262 61.9053 43.6753 58.2491 44.4188C54.5929 45.1623 51.279 47.0601 48.8052 49.8271C46.3313 52.5941 44.831 56.0809 44.5296 59.764C44.2282 63.4471 45.1419 67.1276 47.1336 70.2528C49.1252 73.378 52.0873 75.7791 55.5749 77.0956C59.0626 78.412 62.8875 78.5728 66.4753 77.5537C70.0631 76.5347 73.2201 74.3907 75.4722 71.4439C77.7242 68.4971 78.9498 64.9066 78.9648 61.2114C79.0117 60.3804 79.0117 59.5475 78.9648 58.7165V58.7165Z" fill="#FAFAFA"/>
</svg>
