<svg width="204" height="45" viewBox="0 0 204 45" fill="none" xmlns="http://www.w3.org/2000/svg">
<path d="M9.86176 10.5715L16.5617 25.1006L23.2617 10.5715H29.3971V35H24.9179V16.4433L17.9921 32.3275H15.0938L7.9421 15.9164V35H3.50055V10.5715H9.86176ZM50.2883 18.89C50.9156 19.6929 51.3799 20.6214 51.681 21.6753C52.0072 22.7293 52.1703 23.6954 52.1703 24.5736C52.1703 25.4519 52.1201 26.2424 52.0198 26.945H40.2007C40.2509 28.4255 40.6148 29.63 41.2923 30.5584C41.9698 31.4869 42.9986 31.9511 44.3788 31.9511C46.2106 31.9511 47.3022 31.1481 47.6535 29.5422H52.1327C51.8316 31.374 50.9909 32.8169 49.6108 33.8708C48.1805 34.9749 46.4365 35.527 44.3788 35.527C41.9698 35.527 39.9498 34.6487 38.3187 32.8921C36.6374 31.0603 35.7968 28.7141 35.7968 25.8534C35.7968 22.9175 36.6374 20.5587 38.3187 18.777C39.9247 17.0707 41.9447 16.2175 44.3788 16.2175C46.9132 16.2175 48.8831 17.1083 50.2883 18.89ZM44.4164 19.7557C43.1617 19.7557 42.1831 20.1697 41.4805 20.9978C40.7779 21.8008 40.3638 22.8422 40.2384 24.122H48.0299C48.0299 22.1396 47.4026 20.8096 46.1479 20.1321C45.6711 19.8811 45.0939 19.7557 44.4164 19.7557ZM58.6171 9.17876H63.0587V35H58.6171V9.17876ZM78.3674 16.2175C79.597 16.2175 80.7513 16.4182 81.8303 16.8197C82.9093 17.1961 83.8378 17.7858 84.6157 18.5888C86.3471 20.3454 87.2128 22.7795 87.2128 25.891C87.2128 28.9525 86.3471 31.3614 84.6157 33.118C83.0599 34.724 80.9771 35.527 78.3674 35.527C75.7577 35.527 73.6498 34.724 72.0438 33.118C70.3124 31.3865 69.4466 28.9776 69.4466 25.891C69.4466 22.7544 70.3124 20.3203 72.0438 18.5888C73.6247 17.0079 75.7326 16.2175 78.3674 16.2175ZM82.7713 25.8534C82.7713 23.9212 82.3949 22.4783 81.6421 21.5248C80.8893 20.5461 79.8353 20.0568 78.4803 20.0568C77.1503 20.0568 76.0588 20.5461 75.2056 21.5248C74.3524 22.4783 73.9258 23.9212 73.9258 25.8534C73.9258 27.7856 74.3022 29.241 75.055 30.2197C75.8329 31.1732 76.8869 31.65 78.2168 31.65C79.5468 31.65 80.6383 31.1732 81.4915 30.2197C82.3447 29.241 82.7713 27.7856 82.7713 25.8534ZM105.559 32.177C104.43 34.4103 102.698 35.527 100.365 35.527C98.0309 35.527 96.0736 34.6361 94.4927 32.8545C92.8616 30.9976 92.0461 28.6388 92.0461 25.7781C92.0461 22.9175 92.824 20.5963 94.3798 18.8147C95.9105 17.0832 97.8176 16.2175 100.101 16.2175C102.385 16.2175 104.104 17.1334 105.258 18.9652V9.17876H109.737V35H106.086L105.559 32.177ZM100.929 20.2074C99.6745 20.2074 98.6206 20.7218 97.7674 21.7506C96.9393 22.7544 96.5253 24.1094 96.5253 25.8158C96.5253 27.5221 96.9519 28.9023 97.8051 29.9562C98.6582 30.985 99.7373 31.4995 101.042 31.4995C102.121 31.4995 103.087 31.0729 103.94 30.2197C104.819 29.3414 105.258 28.2373 105.258 26.9073V24.536C105.208 23.2311 104.769 22.1647 103.94 21.3366C103.188 20.5838 102.184 20.2074 100.929 20.2074ZM118.253 16.6692H122.695V35H118.253V16.6692ZM117.726 10.7973C117.726 9.9943 117.965 9.36696 118.442 8.91528C118.918 8.4385 119.596 8.20011 120.474 8.20011C121.327 8.20011 121.992 8.4385 122.469 8.91528C122.971 9.36696 123.222 9.9943 123.222 10.7973C123.222 11.6003 122.971 12.2402 122.469 12.7169C121.992 13.1686 121.327 13.3945 120.474 13.3945C119.596 13.3945 118.918 13.1686 118.442 12.7169C117.965 12.2402 117.726 11.6003 117.726 10.7973ZM138.32 16.2175C139.475 16.2175 140.504 16.4182 141.407 16.8197C142.335 17.1961 143.113 17.698 143.741 18.3254C144.995 19.5298 145.736 21.048 145.961 22.8798L141.482 22.9927C141.281 22.1898 140.905 21.5248 140.353 20.9978C139.826 20.4708 139.211 20.2074 138.509 20.2074C137.806 20.2074 137.204 20.3203 136.702 20.5461C136.2 20.7469 135.761 21.0731 135.384 21.5248C134.531 22.5787 134.105 24.0341 134.105 25.891C134.105 27.748 134.506 29.1532 135.309 30.1068C136.112 31.0352 137.078 31.4995 138.207 31.4995C139.362 31.4995 140.19 31.236 140.692 30.709C141.219 30.1569 141.482 29.4167 141.482 28.4882H145.961C145.961 30.4957 145.296 32.1644 143.966 33.4944C142.611 34.8494 140.717 35.527 138.283 35.527C135.874 35.527 133.854 34.6487 132.223 32.8921C130.491 31.0101 129.626 28.6639 129.626 25.8534C129.626 22.8924 130.491 20.521 132.223 18.7394C133.854 17.0581 135.886 16.2175 138.32 16.2175ZM152.822 16.6692H157.264V35H152.822V16.6692ZM152.295 10.7973C152.295 9.9943 152.534 9.36696 153.01 8.91528C153.487 8.4385 154.165 8.20011 155.043 8.20011C155.896 8.20011 156.561 8.4385 157.038 8.91528C157.54 9.36696 157.791 9.9943 157.791 10.7973C157.791 11.6003 157.54 12.2402 157.038 12.7169C156.561 13.1686 155.896 13.3945 155.043 13.3945C154.165 13.3945 153.487 13.1686 153.01 12.7169C152.534 12.2402 152.295 11.6003 152.295 10.7973ZM176.239 34.5483C174.583 35.2007 173.278 35.527 172.325 35.527C171.371 35.527 170.53 35.414 169.803 35.1882C169.1 34.9624 168.473 34.6236 167.921 34.1719C166.766 33.1431 166.189 31.7253 166.189 29.9186V19.6804H163.63V16.7068H166.189V11.8889H170.631V16.7068H175.599V19.6804H170.631V29.768C170.631 31.2736 171.346 32.0264 172.776 32.0264C173.504 32.0264 174.445 31.8257 175.599 31.4242L176.239 34.5483ZM184.164 16.7068L188.568 29.8809L192.407 16.7068H196.924L189.923 38.3123C189.195 40.4955 188.304 42.0638 187.25 43.0174C186.221 43.9709 184.904 44.4477 183.298 44.4477C181.667 44.4477 180.036 44.0462 178.405 43.2432V39.3286C179.71 40.1567 181.027 40.5708 182.357 40.5708C183.235 40.5708 183.95 40.2195 184.502 39.5168C185.08 38.8142 185.544 37.8983 185.895 36.7691L186.46 35L179.12 16.7068H184.164Z" fill="white"/>
<rect x="2" y="42" width="202" height="3" rx="1.5" fill="url(#paint0_linear_70:3)"/>
<defs>
<linearGradient id="paint0_linear_70:3" x1="18.2686" y1="44.94" x2="136" y2="45.0915" gradientUnits="userSpaceOnUse">
<stop stop-color="white"/>
<stop offset="1" stop-color="white" stop-opacity="0"/>
</linearGradient>
</defs>
</svg>
