<svg width="440" height="523" viewBox="0 0 440 523" fill="none" xmlns="http://www.w3.org/2000/svg">
<path d="M364.93 342.561C364.149 342.469 363.372 342.337 362.604 342.165" stroke="url(#paint0_linear_466_145)" stroke-width="5.21" stroke-miterlimit="10"/>
<path d="M384.286 303.671L378.031 338.657C377.857 339.637 377.342 340.526 376.578 341.165C375.813 341.804 374.848 342.154 373.852 342.152H341.154C340.148 342.152 339.174 341.795 338.407 341.144C337.639 340.494 337.128 339.592 336.962 338.599L331.211 303.671H384.286Z" stroke="url(#paint1_linear_466_145)" stroke-width="5.21" stroke-miterlimit="10"/>
<path d="M390.235 299.768C390.148 300.832 389.664 301.824 388.879 302.547C388.094 303.271 387.065 303.673 385.998 303.672H329.587C328.532 303.672 327.516 303.28 326.735 302.571C325.954 301.862 325.465 300.888 325.364 299.838C325.305 299.249 325.371 298.653 325.557 298.091C325.743 297.529 326.045 297.012 326.443 296.573C326.84 296.134 327.326 295.784 327.868 295.543C328.409 295.304 328.995 295.18 329.587 295.18H385.998C386.584 295.18 387.164 295.302 387.701 295.538C388.238 295.774 388.721 296.118 389.118 296.548C389.517 296.979 389.821 297.488 390.013 298.042C390.205 298.596 390.28 299.183 390.235 299.768Z" stroke="url(#paint2_linear_466_145)" stroke-width="5.21" stroke-miterlimit="10"/>
<path d="M359.556 295.173C359.556 293.384 364.112 271.064 360.335 251.267C358.265 240.404 353.683 230.314 344.475 224.787" stroke="url(#paint3_linear_466_145)" stroke-width="5.21" stroke-miterlimit="10"/>
<path d="M360.323 251.267C360.323 251.267 361.365 236.232 374.381 235.19" stroke="url(#paint4_linear_466_145)" stroke-width="5.21" stroke-miterlimit="10"/>
<path d="M361.716 274.214C365.415 271.624 369.871 270.338 374.381 270.559" stroke="url(#paint5_linear_466_145)" stroke-width="5.21" stroke-miterlimit="10"/>
<path d="M361.717 263.535C361.717 263.535 352.279 252.353 337.192 261.197" stroke="url(#paint6_linear_466_145)" stroke-width="5.21" stroke-miterlimit="10"/>
<path d="M355.071 259.037C355.071 259.037 333.811 239.612 329.651 265.875C329.651 265.875 335.632 269.779 344.476 265.875C353.32 261.97 355.071 259.037 355.071 259.037Z" stroke="url(#paint7_linear_466_145)" stroke-width="5.21" stroke-miterlimit="10"/>
<path d="M365.014 239.772C365.014 239.772 364.241 231.03 374.382 228.167C384.523 225.305 390.248 237.273 390.248 237.273C390.248 237.273 382.433 245.913 365.014 239.772Z" stroke="url(#paint8_linear_466_145)" stroke-width="5.21" stroke-miterlimit="10"/>
<path d="M367.354 270.545C367.354 270.545 367.008 261.708 378.798 263.516C390.588 265.325 392.498 275.395 392.498 275.395C392.498 275.395 373.181 282.476 367.354 271.459" stroke="url(#paint9_linear_466_145)" stroke-width="5.21" stroke-miterlimit="10"/>
<path d="M353.154 232.96C353.154 233.599 344.285 232.167 343.723 232.001C339.429 230.723 336.381 227.746 334.374 223.809C333.735 222.589 330.182 215.745 331.179 214.557C331.192 214.557 352.285 207.77 353.154 232.96Z" stroke="url(#paint10_linear_466_145)" stroke-width="5.21" stroke-miterlimit="10"/>
<path d="M296.249 133.417L277.527 154.344H264.683L245.225 166.773C241.221 166.053 237.109 166.178 233.156 167.139C229.202 168.101 225.493 169.879 222.266 172.357C213.761 178.747 187.555 204.652 174.264 207.502C171.069 199.879 166.96 192.601 164.679 189.368L257.654 144.638L261.916 133.417L288.875 122.554L296.249 133.417Z" fill="url(#paint11_linear_466_145)"/>
<path d="M158.604 342.255L119.516 341.961C106.124 341.868 93.0128 338.112 81.6041 331.098C89.6274 331.088 97.6276 330.232 105.471 328.542C106.014 328.542 106.576 328.542 107.139 328.542C116.302 328.152 124.392 321.948 129.708 314.484C135.024 307.02 138.239 298.285 142.156 289.972C146.073 281.658 151.031 273.454 158.725 268.431C159.46 267.946 160.22 267.505 160.981 267.083C172.591 266.338 184.234 266.274 195.851 266.891C185.486 271.78 149.191 292.509 158.604 342.255Z" fill="url(#paint12_linear_466_145)"/>
<path d="M201.737 239.688C201.737 239.688 197.903 251.363 210.076 255.938C222.249 260.513 221.144 255.759 221.131 263.907C221.131 263.907 223.585 267.434 218.524 267.549C213.463 267.664 193.239 264.494 185.577 265.504C177.915 266.514 163.851 265.894 177.526 261.875C191.2 257.855 200.127 251.229 201.737 239.688Z" fill="url(#paint13_linear_466_145)"/>
<path d="M62.4078 90.5267C62.4078 90.5267 62.0883 92.0731 66.1012 92.3606C70.1142 92.6482 87.1435 93.4214 88.9838 112.17C90.8242 130.918 80.958 154.535 86.7346 155.954C92.5111 157.372 105.048 160.682 108.755 158.382C112.461 156.082 133.037 142.886 156.13 151.813C156.13 151.813 159.772 155.379 159.862 145.295C159.951 135.212 161.274 118.892 154.328 121.128C147.382 123.365 142.826 119.588 140.813 128.426C138.8 137.263 121.055 129.595 121.055 129.595C121.055 129.595 109.886 120.336 103.834 102.444C97.7829 84.552 82.3574 84.8715 77.3349 85.5936C72.3123 86.3157 62.4078 90.5267 62.4078 90.5267Z" fill="url(#paint14_linear_466_145)"/>
<path d="M326.411 482.01C322.047 479.633 322.142 476.259 319.669 473.288L316.072 480.898C315.74 482.693 315.941 484.545 316.651 486.226C317.361 487.907 318.548 489.343 320.066 490.356L354.316 519.181C355.34 519.87 356.531 520.268 357.763 520.333C358.995 520.398 360.222 520.125 361.311 519.546C362.401 518.967 363.312 518.103 363.949 517.046C364.585 515.989 364.922 514.779 364.923 513.545C364.927 512.801 364.804 512.062 364.559 511.359L296.55 309.25C294.673 303.661 291.711 298.499 287.833 294.058C283.956 289.616 279.24 285.985 273.955 283.371C254.888 273.913 216.548 261.945 164.437 266.501" stroke="url(#paint15_linear_466_145)" stroke-width="5.21" stroke-linecap="round" stroke-linejoin="round"/>
<path d="M319.671 473.307C295.676 440.513 260.883 386.109 254.18 365.175C247.15 343.366 227.444 342.51 208.402 342.976L120.986 342.337C107.469 342.254 94.239 338.437 82.7549 331.308" stroke="url(#paint16_linear_466_145)" stroke-width="5.21" stroke-linecap="round" stroke-linejoin="round"/>
<path d="M270.308 281.633C270.161 263.255 270.257 226.04 270.353 196.646C270.429 171.846 242.051 157.385 222.249 172.364C213.648 178.83 204.114 185.476 193.794 196.697" stroke="url(#paint17_linear_466_145)" stroke-width="5.21" stroke-linecap="round" stroke-linejoin="round"/>
<path d="M224.331 238.354C224.331 238.354 219.104 253.012 221.66 267.984" stroke="url(#paint18_linear_466_145)" stroke-width="5.21" stroke-linecap="round" stroke-linejoin="round"/>
<path d="M149.263 150.669H149.192C129.933 147.187 115.964 152.797 106.43 160.056" stroke="url(#paint19_linear_466_145)" stroke-width="5.21" stroke-linecap="round" stroke-linejoin="round"/>
<path d="M30.9192 177.629C27.8328 178.383 26.0436 178.907 26.0436 178.907C-32.7445 213.215 36.4593 324.107 62.8053 329.136C69.3844 330.4 76.0569 331.121 82.7549 331.289C98.4615 331.73 108.756 329.008 108.756 329.008" stroke="url(#paint20_linear_466_145)" stroke-width="5.21" stroke-linecap="round" stroke-linejoin="round"/>
<path d="M72.6056 208.333L108.754 284.303L116.562 273.888L83.7114 208.333H72.6056Z" stroke="url(#paint21_linear_466_145)" stroke-width="5.21" stroke-linecap="round" stroke-linejoin="round"/>
<path d="M91.7706 224.41L125.465 208.211V208.186L136.2 203.042" stroke="url(#paint22_linear_466_145)" stroke-width="5.21" stroke-linecap="round" stroke-linejoin="round"/>
<path d="M245.207 166.772L264.69 154.343H277.534L296.256 133.416L288.882 122.56L261.923 133.416L257.635 144.618L164.654 189.367" stroke="url(#paint23_linear_466_145)" stroke-width="5.21" stroke-linecap="round" stroke-linejoin="round"/>
<path d="M175.779 208.748L193.793 196.69" stroke="url(#paint24_linear_466_145)" stroke-width="5.21" stroke-linecap="round" stroke-linejoin="round"/>
<path d="M146.47 228.353L136.623 234.947L106.992 254.775" stroke="url(#paint25_linear_466_145)" stroke-width="5.21" stroke-linecap="round" stroke-linejoin="round"/>
<path d="M178.597 170.248C178.13 155.423 172.028 140.522 166.027 127.167C164.982 124.833 163.82 122.553 162.545 120.336" stroke="url(#paint26_linear_466_145)" stroke-width="5.21" stroke-linecap="round" stroke-linejoin="round"/>
<path d="M136.622 95.9454C141.791 110.994 148.923 139.174 127.133 132.368C97.7387 123.18 113.043 78.1365 72.6068 86.2709C72.5193 86.2959 72.4292 86.3112 72.3385 86.3157C72.3219 86.3106 72.304 86.3106 72.2873 86.3157H72.2362" stroke="url(#paint27_linear_466_145)" stroke-width="5.21" stroke-linecap="round" stroke-linejoin="round"/>
<path d="M59.0793 92.9034C74.9329 90.4305 101.573 94.1047 83.7063 154.318" stroke="url(#paint28_linear_466_145)" stroke-width="5.21" stroke-linecap="round" stroke-linejoin="round"/>
<path d="M158.942 152.995C160.784 142.412 160.402 131.561 157.818 121.135" stroke="url(#paint29_linear_466_145)" stroke-width="5.21" stroke-linecap="round" stroke-linejoin="round"/>
<path d="M220.944 257.785C220.944 257.785 199.333 257.35 200.407 244.852" stroke="url(#paint30_linear_466_145)" stroke-width="5.21" stroke-linecap="round" stroke-linejoin="round"/>
<path d="M200.044 266.137C200.044 266.137 149.116 284.739 160.081 342.626" stroke="url(#paint31_linear_466_145)" stroke-width="5.21" stroke-linecap="round" stroke-linejoin="round"/>
<path d="M130.227 199.233C127.243 201.256 125.032 204.229 123.952 207.668C122.471 212.728 122.77 218.144 124.8 223.01C126.829 227.877 130.465 231.9 135.102 234.41C139.441 236.615 144.298 237.005 148.656 235.094C149.433 234.747 150.173 234.318 150.86 233.816" stroke="url(#paint32_linear_466_145)" stroke-width="5.21" stroke-linecap="round" stroke-linejoin="round"/>
<path d="M193.786 196.69C196.283 202.524 198.337 208.536 199.933 214.678C200.008 214.886 200.066 215.1 200.106 215.317C200.355 216.275 200.572 217.234 200.796 218.231C201.039 219.387 201.282 220.512 201.505 221.662C201.556 222.033 201.627 222.397 201.678 222.768C201.688 222.833 201.688 222.9 201.678 222.966C201.723 223.234 201.774 223.502 201.825 223.796C201.87 224.263 201.946 224.755 202.042 225.266C202.029 225.323 202.029 225.382 202.042 225.439" stroke="url(#paint33_linear_466_145)" stroke-width="5.21" stroke-linecap="round" stroke-linejoin="round"/>
<path d="M121.05 163.788C128.718 156.465 138.821 150.535 149.166 150.657H149.236C150.048 150.657 150.904 150.701 151.716 150.804C158.623 151.538 164.496 156.12 169.454 160.97C175.237 166.615 180.361 172.898 184.727 179.699" stroke="url(#paint34_linear_466_145)" stroke-width="5.21" stroke-linecap="round" stroke-linejoin="round"/>
<path d="M201.711 222.768C201.721 222.833 201.721 222.9 201.711 222.966C201.756 223.234 201.807 223.503 201.858 223.797C202.887 231.957 202.836 239.484 199.334 247.031C196.369 253.421 189.749 257.446 183.404 259.868C175.634 262.839 167.154 264.284 160.195 268.814C152.527 273.837 147.549 282.048 143.626 290.355C139.703 298.662 136.52 307.391 131.178 314.867C125.836 322.343 117.759 328.541 108.609 328.925C100.941 329.219 93.6562 325.442 87.4068 320.963C70.3518 308.707 58.1469 290.77 48.7856 271.971C40.5744 255.504 34.2036 237.759 33.6157 219.381C33.3218 210.703 34.4464 201.687 39.0344 194.332C40.6799 191.678 42.7106 189.284 45.0602 187.227" stroke="url(#paint35_linear_466_145)" stroke-width="5.21" stroke-linecap="round" stroke-linejoin="round"/>
<path d="M160.079 342.625H4.59741" stroke="url(#paint36_linear_466_145)" stroke-width="5.21" stroke-linecap="round" stroke-linejoin="round"/>
<path d="M401.003 342.625H307.875" stroke="url(#paint37_linear_466_145)" stroke-width="5.21" stroke-linecap="round" stroke-linejoin="round"/>
<path d="M195.8 53.7909V91.7858C195.808 95.4824 194.714 99.0979 192.659 102.171C190.603 105.244 187.679 107.634 184.259 109.039C175.167 112.745 163.128 116.911 143.223 117.621V90.527C148.629 92.6932 154.865 91.313 159.198 87.4087C160.124 86.578 161.032 85.7728 161.882 85.0635C165.211 82.1816 167.914 80.3222 169.275 80.8398C172.099 81.8813 172.47 81.8813 174.208 72.7308C175.486 66.1427 186.145 58.8581 188.713 46.7491C189.242 44.2295 189.389 41.6441 189.148 39.0811C188.844 35.9378 188.093 32.8547 186.918 29.9242C185.211 25.5407 182.84 21.4453 179.889 17.7832L185.416 23.4447C185.927 23.9815 186.419 24.5119 186.873 25.0678C193.653 32.9786 195.8 43.1771 195.8 53.7909Z" fill="url(#paint38_linear_466_145)"/>
<path d="M188.975 45.2661C188.911 45.7773 188.815 46.2757 188.72 46.7486C187.493 46.6655 183.985 47.1576 179.959 49.4899C177.143 51.113 174.658 53.2523 172.636 55.7968C169.562 59.6308 154.801 76.3535 142.552 90.1815L138.015 95.2935C137.348 96.0456 136.525 96.6424 135.603 97.0424C134.681 97.4424 133.683 97.636 132.677 97.6092C131.673 97.5824 130.686 97.3357 129.787 96.8871C128.887 96.4385 128.097 95.7989 127.471 95.0123L97.3298 57.2474C95.3444 54.7361 94.3923 51.5616 94.6677 48.3717C94.9438 45.1824 96.4256 42.2181 98.8123 40.0838L126.002 15.8018L127.088 14.9008C127.618 14.511 128.149 14.134 128.673 13.7698C145.664 3.0218 162.374 4.14644 174.681 12.4343L179.908 17.7955C182.859 21.4582 185.23 25.553 186.937 29.9365C189.231 35.7961 189.646 40.8442 188.975 45.2661Z" fill="url(#paint39_linear_466_145)"/>
<path d="M179.895 17.8017L174.668 12.4405L174.374 12.1401C174.419 12.1599 174.46 12.1881 174.495 12.2232L174.988 12.6577C176.715 14.1773 178.312 15.8406 179.761 17.6292C179.799 17.6867 179.857 17.7442 179.895 17.8017Z" fill="url(#paint40_linear_466_145)"/>
<path d="M178.208 15.0991C178.253 15.1183 178.295 15.1464 178.33 15.1822C180.246 16.8193 182.008 18.629 183.595 20.5881C183.633 20.6456 183.697 20.7032 183.735 20.7607L178.208 15.0991Z" fill="url(#paint41_linear_466_145)"/>
<path d="M129.727 104.667C132.922 101.057 137.542 95.8683 142.507 90.2067C154.801 76.3787 169.562 59.6305 172.635 55.7965C179.025 47.9049 186.764 46.6013 188.719 46.7227" stroke="url(#paint42_linear_466_145)" stroke-width="5.21" stroke-linecap="round" stroke-linejoin="round"/>
<path d="M142.532 90.2075C142.75 90.3257 142.974 90.4318 143.203 90.527C148.609 92.6932 154.846 91.313 159.178 87.4087C163.734 83.3063 167.543 80.188 169.255 80.8398C172.079 81.8813 172.45 81.8813 174.188 72.7308C175.466 66.1427 186.125 58.8581 188.693 46.7491C189.697 41.9694 189.46 36.4484 186.898 29.937C185.189 25.5541 182.818 21.46 179.869 17.796C179.824 17.7385 179.767 17.681 179.728 17.6234C178.142 15.6649 176.379 13.8553 174.463 12.2175C174.428 12.1824 174.386 12.1542 174.342 12.1344C160.884 0.715503 140.685 -1.33569 120.602 13.7319C120.244 14.0131 119.892 14.307 119.554 14.601L92.3706 38.883C89.9839 41.0128 88.5014 43.9739 88.2254 47.1606C87.95 50.3479 88.9027 53.5193 90.8881 56.0274L129.695 104.636" stroke="url(#paint43_linear_466_145)" stroke-width="5.21" stroke-linecap="round" stroke-linejoin="round"/>
<path d="M171.012 58.1103C171.012 58.1103 173.721 57.7078 176.437 60.1743" stroke="url(#paint44_linear_466_145)" stroke-width="5.21" stroke-linecap="round" stroke-linejoin="round"/>
<path d="M170.602 64.5454C171.66 63.3108 171.892 61.7715 171.118 61.1069C170.344 60.443 168.858 60.9057 167.798 62.1402C166.739 63.3747 166.507 64.9141 167.281 65.5787C168.056 66.2426 169.542 65.7799 170.602 64.5454Z" fill="url(#paint45_linear_466_145)"/>
<path d="M174.374 12.1401L179.902 17.8017L185.422 23.4632C193.333 31.5721 195.8 42.4479 195.8 53.7902V96.5585C195.808 100.255 194.714 103.871 192.659 106.943C190.603 110.016 187.679 112.407 184.26 113.811C175.167 117.518 163.128 121.684 143.223 122.393V90.5263" stroke="url(#paint46_linear_466_145)" stroke-width="5.21" stroke-linecap="round" stroke-linejoin="round"/>
<path d="M161.876 85.0567C161.876 85.0567 157.448 86.5455 156.125 80.6284" stroke="url(#paint47_linear_466_145)" stroke-width="5.21" stroke-linecap="round" stroke-linejoin="round"/>
<path d="M107.119 76.354L101.713 82.8846C101.239 83.4539 100.632 83.898 99.9446 84.1766C99.2583 84.4552 98.5133 84.5601 97.7765 84.4821C94.0831 84.1243 90.3833 83.9581 86.6962 83.9581C30.9434 83.9581 -5.6713 184.952 56.0625 189.342C116.569 193.63 140.615 190.984 144.884 222.423C145.887 229.829 150.373 237.12 158.775 234.289C169.242 230.781 175.882 218.135 174.22 207.502C172.527 196.691 164.367 187.649 156.104 181.08C139.861 168.217 119.982 162.753 100.032 158.715C93.5655 157.437 73.0024 155.724 79.5202 144.618" stroke="url(#paint48_linear_466_145)" stroke-width="5.21" stroke-linecap="round" stroke-linejoin="round"/>
<path d="M337.467 170.267L336.253 171.699L334.476 170.178L335.69 168.747C335.895 168.507 336.05 168.229 336.146 167.929C336.243 167.63 336.28 167.314 336.254 167C336.229 166.686 336.142 166.38 335.998 166.1C335.854 165.819 335.656 165.57 335.416 165.366L323.224 155.015L328.623 137.5L342.215 149.04C343.183 149.864 343.785 151.039 343.889 152.306C343.994 153.573 343.592 154.83 342.771 155.801L341.339 157.481L339.563 155.967L340.988 154.292C341.197 154.046 341.357 153.761 341.456 153.453C341.555 153.146 341.593 152.821 341.567 152.499C341.541 152.177 341.451 151.864 341.303 151.575C341.156 151.288 340.953 151.032 340.707 150.823L329.844 141.57L325.939 154.229L336.956 163.584C337.429 163.989 337.818 164.483 338.1 165.038C338.381 165.593 338.551 166.199 338.598 166.819C338.645 167.441 338.57 168.065 338.376 168.657C338.182 169.248 337.873 169.795 337.467 170.267Z" fill="#6B3CF1"/>
<path d="M334.564 174.408C335.958 174.408 337.088 173.278 337.088 171.884C337.088 170.49 335.958 169.36 334.564 169.36C333.17 169.36 332.04 170.49 332.04 171.884C332.04 173.278 333.17 174.408 334.564 174.408Z" fill="#6B3CF1"/>
<path d="M340.692 159.379C342.086 159.379 343.216 158.249 343.216 156.855C343.216 155.461 342.086 154.331 340.692 154.331C339.298 154.331 338.168 155.461 338.168 156.855C338.168 158.249 339.298 159.379 340.692 159.379Z" fill="#6B3CF1"/>
<path d="M384.879 206.991L381.333 205.803L382.815 201.387L386.362 202.582C386.957 202.783 387.587 202.864 388.214 202.821C388.842 202.779 389.454 202.613 390.018 202.334C390.581 202.054 391.083 201.666 391.496 201.192C391.91 200.719 392.225 200.168 392.426 199.572L402.599 169.335L439.022 166.402L427.68 200.122C426.866 202.528 425.13 204.514 422.853 205.641C420.577 206.769 417.946 206.946 415.539 206.135L411.443 204.735L412.925 200.32L417.091 201.726C418.326 202.138 419.674 202.045 420.84 201.466C422.006 200.888 422.896 199.871 423.315 198.639L432.408 171.61L406.056 173.731L396.861 201.061C396.463 202.238 395.838 203.324 395.022 204.258C394.204 205.193 393.211 205.958 392.098 206.508C390.986 207.059 389.775 207.385 388.537 207.468C387.298 207.551 386.055 207.389 384.879 206.991Z" fill="#6B3CF1"/>
<path d="M379.742 207.853C382.527 207.853 384.784 205.595 384.784 202.811C384.784 200.026 382.527 197.77 379.742 197.77C376.958 197.77 374.701 200.026 374.701 202.811C374.701 205.595 376.958 207.853 379.742 207.853Z" fill="#6B3CF1"/>
<path d="M412.114 208.109C414.899 208.109 417.156 205.852 417.156 203.067C417.156 200.283 414.899 198.025 412.114 198.025C409.33 198.025 407.073 200.283 407.073 203.067C407.073 205.852 409.33 208.109 412.114 208.109Z" fill="#6B3CF1"/>
<path d="M301.069 211.713L299.101 210.627L300.449 208.179L302.418 209.266C303.085 209.634 303.871 209.722 304.602 209.511C305.335 209.3 305.953 208.808 306.322 208.141L316.162 190.307L317.44 192.006C317.658 192.294 322.77 199.106 320.533 207.636L317.83 206.921C318.74 203.111 318.226 199.1 316.386 195.642L308.718 209.489C307.991 210.79 306.781 211.753 305.35 212.169C303.919 212.585 302.381 212.421 301.069 211.713Z" fill="#6B3CF1"/>
<path d="M249.577 115.844L247.368 116.259L246.85 113.514L249.059 113.098C249.808 112.957 250.47 112.525 250.9 111.897C251.33 111.268 251.494 110.494 251.354 109.745L247.588 89.7272L249.656 90.2243C250.006 90.3078 258.285 92.3061 261.992 100.308L259.451 101.477C257.728 97.9602 254.778 95.1941 251.157 93.6994L254.06 109.26C254.328 110.726 254.007 112.238 253.168 113.47C252.33 114.703 251.04 115.555 249.577 115.844Z" fill="#6B3CF1"/>
<path d="M298.486 211.713C300.159 211.713 301.515 210.356 301.515 208.684C301.515 207.011 300.159 205.655 298.486 205.655C296.813 205.655 295.457 207.011 295.457 208.684C295.457 210.356 296.813 211.713 298.486 211.713Z" fill="#6B3CF1"/>
<path d="M247.585 117.489C248.875 116.424 249.057 114.515 247.993 113.225C246.928 111.935 245.019 111.753 243.729 112.818C242.439 113.883 242.256 115.792 243.321 117.082C244.386 118.371 246.295 118.554 247.585 117.489Z" fill="#6B3CF1"/>
<path d="M367.475 145.347L364.28 143.014L368.005 137.902C366.364 136.848 364.96 135.464 363.884 133.838C362.98 132.477 362.431 130.912 362.284 129.286C362.139 127.659 362.401 126.021 363.047 124.522C364.114 121.895 366.139 119.505 369.232 117.218C375.296 112.745 382.504 110.515 388.996 109.217L392.076 105.013C392.971 103.792 394.46 101.76 396.894 101.39C397.716 101.302 398.548 101.416 399.315 101.723C400.083 102.029 400.764 102.519 401.3 103.148C401.835 103.778 402.208 104.53 402.387 105.337C402.566 106.144 402.545 106.982 402.326 107.78C401.182 111.32 396.965 111.927 395.169 112.189C393.891 112.368 392.613 112.572 391.265 112.828L382.753 124.451C386.472 126.292 388.089 130.841 386.53 135.033C385.099 138.867 381.418 141.065 376.683 140.835C374.932 140.74 373.207 140.371 371.571 139.743L367.475 145.347ZM385.444 114.112C380.67 115.39 375.782 117.307 371.59 120.413C369.098 122.253 367.507 124.087 366.721 126.03C366.315 126.944 366.148 127.947 366.235 128.943C366.322 129.94 366.661 130.899 367.219 131.729C368.035 132.943 369.101 133.969 370.344 134.739L375.162 128.164C374.817 128.279 374.466 128.407 374.108 128.547L372.638 124.886C374.506 124.121 376.493 123.688 378.51 123.608L385.444 114.112ZM380.364 127.736L374.018 136.407C374.952 136.68 375.915 136.845 376.887 136.899C378.293 136.963 381.686 136.784 382.843 133.666C383.571 131.698 383.194 129.052 381.003 127.979C380.796 127.881 380.582 127.8 380.364 127.736ZM398.064 105.492C397.907 105.365 397.709 105.299 397.508 105.307C396.754 105.422 395.962 106.425 395.278 107.358L394.594 108.297C396.128 108.08 398.211 107.658 398.562 106.585C398.585 106.43 398.571 106.272 398.523 106.123C398.473 105.975 398.391 105.84 398.281 105.729C398.217 105.642 398.144 105.564 398.064 105.492Z" fill="#6B3CF1"/>
<path d="M295.436 83.3881L293.213 83.1495L293.592 79.595C292.491 79.5427 291.413 79.262 290.427 78.7707C289.6 78.3599 288.889 77.7493 288.358 76.9947C287.827 76.2397 287.492 75.3642 287.385 74.4477C287.165 72.8608 287.481 71.1189 288.348 69.1255C290.052 65.223 292.949 62.0949 295.76 59.6257L296.079 56.6977C296.172 55.8476 296.327 54.4325 297.414 53.5632C297.791 53.2878 298.23 53.1089 298.692 53.0422C299.155 52.9753 299.626 53.0224 300.066 53.1791C300.506 53.3361 300.901 53.5985 301.217 53.9429C301.533 54.2873 301.759 54.7035 301.877 55.1558C302.318 57.2114 300.425 58.7002 299.621 59.3357C299.046 59.7844 298.478 60.2456 297.89 60.7516L297.009 68.845C299.349 68.6949 301.426 70.4647 301.847 72.9567C302.23 75.2375 301.05 77.3532 298.668 78.5786C297.784 79.0267 296.836 79.3335 295.857 79.4882L295.436 83.3881ZM295.404 63.025C293.429 64.9992 291.579 67.3186 290.405 70.0229C289.705 71.6277 289.445 72.9748 289.609 74.1475C289.669 74.7097 289.87 75.2475 290.194 75.7108C290.519 76.1741 290.955 76.5475 291.463 76.7962C292.205 77.1595 293.017 77.3608 293.843 77.3862L294.343 72.8069C294.207 72.9607 294.071 73.1226 293.935 73.2925L292.181 71.9158C292.879 71.0138 293.73 70.2405 294.694 69.6311L295.404 63.025ZM296.768 71.1277L296.112 77.1643C296.647 77.0338 297.164 76.8424 297.655 76.5944C298.361 76.2285 299.971 75.1822 299.656 73.3293C299.457 72.1602 298.525 70.9721 297.149 71.066C297.02 71.0765 296.893 71.0972 296.768 71.1277ZM299.145 55.2405C299.032 55.2225 298.917 55.2459 298.821 55.3069C298.484 55.5762 298.38 56.2911 298.309 56.9408L298.24 57.5937C298.929 57.0541 299.829 56.2591 299.698 55.6344C299.665 55.5524 299.614 55.4786 299.548 55.4198C299.482 55.3608 299.403 55.3182 299.318 55.2948C299.262 55.2708 299.204 55.2529 299.145 55.2405Z" fill="#6B3CF1"/>
<defs>
<linearGradient id="paint0_linear_466_145" x1="363.767" y1="342.165" x2="363.767" y2="342.561" gradientUnits="userSpaceOnUse">
<stop stop-color="#8F3191"/>
<stop offset="1" stop-color="#AE12B1" stop-opacity="0"/>
</linearGradient>
<linearGradient id="paint1_linear_466_145" x1="357.749" y1="303.671" x2="357.749" y2="342.152" gradientUnits="userSpaceOnUse">
<stop stop-color="#8F3191"/>
<stop offset="1" stop-color="#AE12B1" stop-opacity="0"/>
</linearGradient>
<linearGradient id="paint2_linear_466_145" x1="357.795" y1="295.18" x2="357.795" y2="303.672" gradientUnits="userSpaceOnUse">
<stop stop-color="#8F3191"/>
<stop offset="1" stop-color="#AE12B1" stop-opacity="0"/>
</linearGradient>
<linearGradient id="paint3_linear_466_145" x1="353.154" y1="224.787" x2="353.154" y2="295.173" gradientUnits="userSpaceOnUse">
<stop stop-color="#8F3191"/>
<stop offset="1" stop-color="#AE12B1" stop-opacity="0"/>
</linearGradient>
<linearGradient id="paint4_linear_466_145" x1="367.352" y1="235.19" x2="367.352" y2="251.267" gradientUnits="userSpaceOnUse">
<stop stop-color="#8F3191"/>
<stop offset="1" stop-color="#AE12B1" stop-opacity="0"/>
</linearGradient>
<linearGradient id="paint5_linear_466_145" x1="368.049" y1="270.535" x2="368.049" y2="274.214" gradientUnits="userSpaceOnUse">
<stop stop-color="#8F3191"/>
<stop offset="1" stop-color="#AE12B1" stop-opacity="0"/>
</linearGradient>
<linearGradient id="paint6_linear_466_145" x1="349.454" y1="257.792" x2="349.454" y2="263.535" gradientUnits="userSpaceOnUse">
<stop stop-color="#8F3191"/>
<stop offset="1" stop-color="#AE12B1" stop-opacity="0"/>
</linearGradient>
<linearGradient id="paint7_linear_466_145" x1="342.361" y1="252.122" x2="342.361" y2="267.61" gradientUnits="userSpaceOnUse">
<stop stop-color="#8F3191"/>
<stop offset="1" stop-color="#AE12B1" stop-opacity="0"/>
</linearGradient>
<linearGradient id="paint8_linear_466_145" x1="377.624" y1="227.725" x2="377.624" y2="241.976" gradientUnits="userSpaceOnUse">
<stop stop-color="#8F3191"/>
<stop offset="1" stop-color="#AE12B1" stop-opacity="0"/>
</linearGradient>
<linearGradient id="paint9_linear_466_145" x1="379.925" y1="263.272" x2="379.925" y2="277.635" gradientUnits="userSpaceOnUse">
<stop stop-color="#8F3191"/>
<stop offset="1" stop-color="#AE12B1" stop-opacity="0"/>
</linearGradient>
<linearGradient id="paint10_linear_466_145" x1="342.079" y1="213.725" x2="342.079" y2="233.123" gradientUnits="userSpaceOnUse">
<stop stop-color="#8F3191"/>
<stop offset="1" stop-color="#AE12B1" stop-opacity="0"/>
</linearGradient>
<linearGradient id="paint11_linear_466_145" x1="230.464" y1="122.554" x2="241.469" y2="198.294" gradientUnits="userSpaceOnUse">
<stop stop-color="#CD2BB3"/>
<stop offset="1" stop-color="#6B3CF1"/>
</linearGradient>
<linearGradient id="paint12_linear_466_145" x1="138.727" y1="266.472" x2="138.727" y2="342.255" gradientUnits="userSpaceOnUse">
<stop stop-color="#CD2BB3"/>
<stop offset="1" stop-color="#6B3CF1" stop-opacity="0.65"/>
</linearGradient>
<linearGradient id="paint13_linear_466_145" x1="196.756" y1="239.688" x2="196.756" y2="267.552" gradientUnits="userSpaceOnUse">
<stop stop-color="#CD2BB3"/>
<stop offset="1" stop-color="#6B3CF1" stop-opacity="0.65"/>
</linearGradient>
<linearGradient id="paint14_linear_466_145" x1="111.445" y1="49.4045" x2="111.445" y2="170.515" gradientUnits="userSpaceOnUse">
<stop stop-color="#F243CC"/>
<stop offset="1" stop-color="#6B3CF1"/>
</linearGradient>
<linearGradient id="paint15_linear_466_145" x1="264.68" y1="265.502" x2="264.68" y2="520.342" gradientUnits="userSpaceOnUse">
<stop stop-color="#8F3191"/>
<stop offset="1" stop-color="#2A192B" stop-opacity="0"/>
</linearGradient>
<linearGradient id="paint16_linear_466_145" x1="201.213" y1="331.308" x2="201.213" y2="473.307" gradientUnits="userSpaceOnUse">
<stop stop-color="#8F3191"/>
<stop offset="1" stop-color="#2A192B" stop-opacity="0"/>
</linearGradient>
<linearGradient id="paint17_linear_466_145" x1="232.073" y1="166.287" x2="232.073" y2="281.633" gradientUnits="userSpaceOnUse">
<stop stop-color="#8F3191"/>
<stop offset="1" stop-color="#2A192B" stop-opacity="0"/>
</linearGradient>
<linearGradient id="paint18_linear_466_145" x1="222.644" y1="238.354" x2="222.644" y2="267.984" gradientUnits="userSpaceOnUse">
<stop stop-color="#8F3191"/>
<stop offset="1" stop-color="#2A192B" stop-opacity="0"/>
</linearGradient>
<linearGradient id="paint19_linear_466_145" x1="127.847" y1="149.609" x2="127.847" y2="160.056" gradientUnits="userSpaceOnUse">
<stop stop-color="#8F3191"/>
<stop offset="1" stop-color="#2A192B" stop-opacity="0"/>
</linearGradient>
<linearGradient id="paint20_linear_466_145" x1="55.8841" y1="177.629" x2="55.8841" y2="331.338" gradientUnits="userSpaceOnUse">
<stop stop-color="#8F3191"/>
<stop offset="1" stop-color="#2A192B" stop-opacity="0"/>
</linearGradient>
<linearGradient id="paint21_linear_466_145" x1="94.584" y1="208.333" x2="94.584" y2="284.303" gradientUnits="userSpaceOnUse">
<stop stop-color="#8F3191"/>
<stop offset="1" stop-color="#2A192B" stop-opacity="0"/>
</linearGradient>
<linearGradient id="paint22_linear_466_145" x1="113.985" y1="203.042" x2="113.985" y2="224.41" gradientUnits="userSpaceOnUse">
<stop stop-color="#8F3191"/>
<stop offset="1" stop-color="#2A192B" stop-opacity="0"/>
</linearGradient>
<linearGradient id="paint23_linear_466_145" x1="230.455" y1="122.56" x2="230.455" y2="189.367" gradientUnits="userSpaceOnUse">
<stop stop-color="#8F3191"/>
<stop offset="1" stop-color="#2A192B" stop-opacity="0"/>
</linearGradient>
<linearGradient id="paint24_linear_466_145" x1="184.786" y1="196.69" x2="184.786" y2="208.748" gradientUnits="userSpaceOnUse">
<stop stop-color="#8F3191"/>
<stop offset="1" stop-color="#2A192B" stop-opacity="0"/>
</linearGradient>
<linearGradient id="paint25_linear_466_145" x1="126.731" y1="228.353" x2="126.731" y2="254.775" gradientUnits="userSpaceOnUse">
<stop stop-color="#8F3191"/>
<stop offset="1" stop-color="#2A192B" stop-opacity="0"/>
</linearGradient>
<linearGradient id="paint26_linear_466_145" x1="170.571" y1="120.336" x2="170.571" y2="170.248" gradientUnits="userSpaceOnUse">
<stop stop-color="#8F3191"/>
<stop offset="1" stop-color="#2A192B" stop-opacity="0"/>
</linearGradient>
<linearGradient id="paint27_linear_466_145" x1="107.121" y1="85.2935" x2="107.121" y2="133.411" gradientUnits="userSpaceOnUse">
<stop stop-color="#8F3191"/>
<stop offset="1" stop-color="#2A192B" stop-opacity="0"/>
</linearGradient>
<linearGradient id="paint28_linear_466_145" x1="74.3627" y1="92.3613" x2="74.3627" y2="154.318" gradientUnits="userSpaceOnUse">
<stop stop-color="#8F3191"/>
<stop offset="1" stop-color="#2A192B" stop-opacity="0"/>
</linearGradient>
<linearGradient id="paint29_linear_466_145" x1="158.953" y1="121.135" x2="158.953" y2="152.995" gradientUnits="userSpaceOnUse">
<stop stop-color="#8F3191"/>
<stop offset="1" stop-color="#2A192B" stop-opacity="0"/>
</linearGradient>
<linearGradient id="paint30_linear_466_145" x1="210.656" y1="244.852" x2="210.656" y2="257.785" gradientUnits="userSpaceOnUse">
<stop stop-color="#8F3191"/>
<stop offset="1" stop-color="#2A192B" stop-opacity="0"/>
</linearGradient>
<linearGradient id="paint31_linear_466_145" x1="179.289" y1="266.137" x2="179.289" y2="342.626" gradientUnits="userSpaceOnUse">
<stop stop-color="#8F3191"/>
<stop offset="1" stop-color="#2A192B" stop-opacity="0"/>
</linearGradient>
<linearGradient id="paint32_linear_466_145" x1="136.942" y1="199.233" x2="136.942" y2="236.322" gradientUnits="userSpaceOnUse">
<stop stop-color="#8F3191"/>
<stop offset="1" stop-color="#2A192B" stop-opacity="0"/>
</linearGradient>
<linearGradient id="paint33_linear_466_145" x1="197.914" y1="196.69" x2="197.914" y2="225.439" gradientUnits="userSpaceOnUse">
<stop stop-color="#8F3191"/>
<stop offset="1" stop-color="#2A192B" stop-opacity="0"/>
</linearGradient>
<linearGradient id="paint34_linear_466_145" x1="152.888" y1="150.655" x2="152.888" y2="179.699" gradientUnits="userSpaceOnUse">
<stop stop-color="#8F3191"/>
<stop offset="1" stop-color="#2A192B" stop-opacity="0"/>
</linearGradient>
<linearGradient id="paint35_linear_466_145" x1="118.006" y1="187.227" x2="118.006" y2="328.941" gradientUnits="userSpaceOnUse">
<stop stop-color="#8F3191"/>
<stop offset="1" stop-color="#2A192B" stop-opacity="0"/>
</linearGradient>
<linearGradient id="paint36_linear_466_145" x1="82.3382" y1="342.625" x2="82.3382" y2="343.625" gradientUnits="userSpaceOnUse">
<stop stop-color="#8F3191"/>
<stop offset="1" stop-color="#2A192B" stop-opacity="0"/>
</linearGradient>
<linearGradient id="paint37_linear_466_145" x1="354.439" y1="342.625" x2="354.439" y2="343.625" gradientUnits="userSpaceOnUse">
<stop stop-color="#8F3191"/>
<stop offset="1" stop-color="#2A192B" stop-opacity="0"/>
</linearGradient>
<linearGradient id="paint38_linear_466_145" x1="169.511" y1="17.7832" x2="169.511" y2="117.621" gradientUnits="userSpaceOnUse">
<stop stop-color="#CD2BB3"/>
<stop offset="1" stop-color="#6B3CF1" stop-opacity="0.65"/>
</linearGradient>
<linearGradient id="paint39_linear_466_145" x1="141.944" y1="5.96338" x2="141.944" y2="97.6116" gradientUnits="userSpaceOnUse">
<stop stop-color="#CD2BB3"/>
<stop offset="1" stop-color="#6B3CF1" stop-opacity="0.65"/>
</linearGradient>
<linearGradient id="paint40_linear_466_145" x1="177.135" y1="12.1401" x2="177.135" y2="17.8017" gradientUnits="userSpaceOnUse">
<stop stop-color="#CD2BB3"/>
<stop offset="1" stop-color="#6B3CF1" stop-opacity="0.65"/>
</linearGradient>
<linearGradient id="paint41_linear_466_145" x1="180.972" y1="15.0991" x2="180.972" y2="20.7607" gradientUnits="userSpaceOnUse">
<stop stop-color="#CD2BB3"/>
<stop offset="1" stop-color="#6B3CF1" stop-opacity="0.65"/>
</linearGradient>
<linearGradient id="paint42_linear_466_145" x1="159.223" y1="46.7153" x2="159.223" y2="104.667" gradientUnits="userSpaceOnUse">
<stop stop-color="#8F3191"/>
<stop offset="1" stop-color="#2A192B" stop-opacity="0"/>
</linearGradient>
<linearGradient id="paint43_linear_466_145" x1="138.712" y1="3" x2="138.712" y2="104.636" gradientUnits="userSpaceOnUse">
<stop stop-color="#8F3191"/>
<stop offset="1" stop-color="#2A192B" stop-opacity="0"/>
</linearGradient>
<linearGradient id="paint44_linear_466_145" x1="173.724" y1="58.0859" x2="173.724" y2="60.1743" gradientUnits="userSpaceOnUse">
<stop stop-color="#8F3191"/>
<stop offset="1" stop-color="#2A192B" stop-opacity="0"/>
</linearGradient>
<linearGradient id="paint45_linear_466_145" x1="169.2" y1="60.8037" x2="169.2" y2="65.8819" gradientUnits="userSpaceOnUse">
<stop stop-color="#8F3191"/>
<stop offset="1" stop-color="#2A192B" stop-opacity="0"/>
</linearGradient>
<linearGradient id="paint46_linear_466_145" x1="169.511" y1="12.1401" x2="169.511" y2="122.393" gradientUnits="userSpaceOnUse">
<stop stop-color="#8F3191"/>
<stop offset="1" stop-color="#2A192B" stop-opacity="0"/>
</linearGradient>
<linearGradient id="paint47_linear_466_145" x1="159" y1="80.6284" x2="159" y2="85.2235" gradientUnits="userSpaceOnUse">
<stop stop-color="#8F3191"/>
<stop offset="1" stop-color="#2A192B" stop-opacity="0"/>
</linearGradient>
<linearGradient id="paint48_linear_466_145" x1="99.1956" y1="76.354" x2="99.1956" y2="234.914" gradientUnits="userSpaceOnUse">
<stop stop-color="#8F3191"/>
<stop offset="1" stop-color="#2A192B" stop-opacity="0"/>
</linearGradient>
</defs>
</svg>
