<svg width="50" height="39" viewBox="0 0 50 39" fill="none" xmlns="http://www.w3.org/2000/svg">
<g clip-path="url(#clip0_666_2)">
<path d="M0.910055 15H0.780055C0.554473 15.0508 0.353468 15.1782 0.211254 15.3605C0.0690393 15.5429 -0.00559504 15.7688 5.45912e-05 16V22C5.45912e-05 22.2652 0.105411 22.5196 0.292948 22.7071C0.480484 22.8946 0.734838 23 1.00005 23C1.26527 23 1.51963 22.8946 1.70716 22.7071C1.8947 22.5196 2.00005 22.2652 2.00005 22V16C2.00005 15.7348 1.8947 15.4804 1.70716 15.2929C1.51963 15.1054 1.26527 15 1.00005 15H0.910055Z" fill="url(#paint0_linear_666_2)"/>
<path d="M6.91005 9H6.78005C6.55447 9.0508 6.35347 9.17821 6.21125 9.36054C6.06904 9.54286 5.9944 9.76884 6.00005 10V28C6.00005 28.2652 6.10541 28.5196 6.29295 28.7071C6.48048 28.8946 6.73484 29 7.00005 29C7.26527 29 7.51962 28.8946 7.70716 28.7071C7.8947 28.5196 8.00005 28.2652 8.00005 28V10C8.00005 9.73478 7.8947 9.48043 7.70716 9.29289C7.51962 9.10536 7.26527 9 7.00005 9H6.91005Z" fill="url(#paint1_linear_666_2)"/>
<path d="M12.9101 0H12.7801C12.5545 0.0508018 12.3535 0.178209 12.2113 0.360535C12.069 0.542862 11.9944 0.768838 12.0001 1V37C12.0001 37.2652 12.1054 37.5196 12.2929 37.7071C12.4805 37.8946 12.7348 38 13.0001 38C13.2653 38 13.5196 37.8946 13.7072 37.7071C13.8947 37.5196 14.0001 37.2652 14.0001 37V1C14.0001 0.734784 13.8947 0.48043 13.7072 0.292893C13.5196 0.105357 13.2653 0 13.0001 0L12.9101 0Z" fill="url(#paint2_linear_666_2)"/>
<path d="M18.91 10H18.79C18.5626 10.0488 18.3593 10.1753 18.2151 10.3579C18.0709 10.5404 17.9948 10.7675 18 11V27C18 27.2652 18.1054 27.5196 18.2929 27.7071C18.4804 27.8946 18.7348 28 19 28C19.2652 28 19.5196 27.8946 19.7071 27.7071C19.8946 27.5196 20 27.2652 20 27V11C20 10.7348 19.8946 10.4804 19.7071 10.2929C19.5196 10.1054 19.2652 10 19 10H18.91Z" fill="url(#paint3_linear_666_2)"/>
<path d="M24.91 15H24.79C24.5626 15.0488 24.3593 15.1753 24.2151 15.3579C24.0709 15.5404 23.9948 15.7675 24 16V22C24 22.2652 24.1054 22.5196 24.2929 22.7071C24.4804 22.8946 24.7348 23 25 23C25.2652 23 25.5196 22.8946 25.7071 22.7071C25.8946 22.5196 26 22.2652 26 22V16C26 15.7348 25.8946 15.4804 25.7071 15.2929C25.5196 15.1054 25.2652 15 25 15H24.91Z" fill="url(#paint4_linear_666_2)"/>
<path d="M30.91 10H30.79C30.5626 10.0488 30.3593 10.1753 30.2151 10.3579C30.0709 10.5404 29.9948 10.7675 30 11V27C30 27.2652 30.1054 27.5196 30.2929 27.7071C30.4804 27.8946 30.7348 28 31 28C31.2652 28 31.5196 27.8946 31.7071 27.7071C31.8946 27.5196 32 27.2652 32 27V11C32 10.7348 31.8946 10.4804 31.7071 10.2929C31.5196 10.1054 31.2652 10 31 10H30.91Z" fill="url(#paint5_linear_666_2)"/>
<path d="M36.9101 0H36.7801C36.5545 0.0508018 36.3535 0.178209 36.2113 0.360535C36.069 0.542862 35.9944 0.768838 36.0001 1V37C36.0001 37.2652 36.1054 37.5196 36.2929 37.7071C36.4805 37.8946 36.7348 38 37.0001 38C37.2653 38 37.5196 37.8946 37.7072 37.7071C37.8947 37.5196 38.0001 37.2652 38.0001 37V1C38.0001 0.734784 37.8947 0.48043 37.7072 0.292893C37.5196 0.105357 37.2653 0 37.0001 0L36.9101 0Z" fill="url(#paint6_linear_666_2)"/>
<path d="M42.9101 9H42.7801C42.5545 9.0508 42.3535 9.17821 42.2113 9.36054C42.069 9.54286 41.9944 9.76884 42.0001 10V28C42.0001 28.2652 42.1054 28.5196 42.2929 28.7071C42.4805 28.8946 42.7348 29 43.0001 29C43.2653 29 43.5196 28.8946 43.7072 28.7071C43.8947 28.5196 44.0001 28.2652 44.0001 28V10C44.0001 9.73478 43.8947 9.48043 43.7072 9.29289C43.5196 9.10536 43.2653 9 43.0001 9H42.9101Z" fill="url(#paint7_linear_666_2)"/>
<path d="M48.91 15H48.79C48.5626 15.0488 48.3593 15.1753 48.2151 15.3579C48.0709 15.5404 47.9948 15.7675 48 16V22C48 22.2652 48.1054 22.5196 48.2929 22.7071C48.4804 22.8946 48.7348 23 49 23C49.2652 23 49.5196 22.8946 49.7071 22.7071C49.8946 22.5196 50 22.2652 50 22V16C50 15.7348 49.8946 15.4804 49.7071 15.2929C49.5196 15.1054 49.2652 15 49 15H48.91Z" fill="url(#paint8_linear_666_2)"/>
</g>
<defs>
<linearGradient id="paint0_linear_666_2" x1="0.999905" y1="15" x2="0.999905" y2="23" gradientUnits="userSpaceOnUse">
<stop stop-color="#6B3CF1"/>
<stop offset="1" stop-color="#FFAEF5"/>
</linearGradient>
<linearGradient id="paint1_linear_666_2" x1="6.99991" y1="9" x2="6.99991" y2="29" gradientUnits="userSpaceOnUse">
<stop stop-color="#6B3CF1"/>
<stop offset="1" stop-color="#FFAEF5"/>
</linearGradient>
<linearGradient id="paint2_linear_666_2" x1="12.9999" y1="0" x2="12.9999" y2="38" gradientUnits="userSpaceOnUse">
<stop stop-color="#6B3CF1"/>
<stop offset="1" stop-color="#FFAEF5"/>
</linearGradient>
<linearGradient id="paint3_linear_666_2" x1="18.9999" y1="10" x2="18.9999" y2="28" gradientUnits="userSpaceOnUse">
<stop stop-color="#6B3CF1"/>
<stop offset="1" stop-color="#FFAEF5"/>
</linearGradient>
<linearGradient id="paint4_linear_666_2" x1="24.9999" y1="15" x2="24.9999" y2="23" gradientUnits="userSpaceOnUse">
<stop stop-color="#6B3CF1"/>
<stop offset="1" stop-color="#FFAEF5"/>
</linearGradient>
<linearGradient id="paint5_linear_666_2" x1="30.9999" y1="10" x2="30.9999" y2="28" gradientUnits="userSpaceOnUse">
<stop stop-color="#6B3CF1"/>
<stop offset="1" stop-color="#FFAEF5"/>
</linearGradient>
<linearGradient id="paint6_linear_666_2" x1="36.9999" y1="0" x2="36.9999" y2="38" gradientUnits="userSpaceOnUse">
<stop stop-color="#6B3CF1"/>
<stop offset="1" stop-color="#FFAEF5"/>
</linearGradient>
<linearGradient id="paint7_linear_666_2" x1="42.9999" y1="9" x2="42.9999" y2="29" gradientUnits="userSpaceOnUse">
<stop stop-color="#6B3CF1"/>
<stop offset="1" stop-color="#FFAEF5"/>
</linearGradient>
<linearGradient id="paint8_linear_666_2" x1="48.9999" y1="15" x2="48.9999" y2="23" gradientUnits="userSpaceOnUse">
<stop stop-color="#6B3CF1"/>
<stop offset="1" stop-color="#FFAEF5"/>
</linearGradient>
<clipPath id="clip0_666_2">
<rect width="50" height="38.05" fill="white"/>
</clipPath>
</defs>
</svg>
