<svg width="202" height="45" viewBox="0 0 202 45" fill="none" xmlns="http://www.w3.org/2000/svg">
<path d="M10.8618 10.5715L17.5617 25.1006L24.2617 10.5715H30.3971V35H25.9179V16.4433L18.9921 32.3275H16.0938L8.9421 15.9164V35H4.50055V10.5715H10.8618ZM51.2883 18.89C51.9156 19.6929 52.3799 20.6214 52.681 21.6753C53.0072 22.7293 53.1703 23.6954 53.1703 24.5736C53.1703 25.4519 53.1201 26.2424 53.0198 26.945H41.2007C41.2509 28.4255 41.6148 29.63 42.2923 30.5584C42.9698 31.4869 43.9986 31.9511 45.3788 31.9511C47.2106 31.9511 48.3022 31.1481 48.6535 29.5422H53.1327C52.8316 31.374 51.9909 32.8169 50.6108 33.8708C49.1805 34.9749 47.4365 35.527 45.3788 35.527C42.9698 35.527 40.9498 34.6487 39.3187 32.8921C37.6374 31.0603 36.7968 28.7141 36.7968 25.8534C36.7968 22.9175 37.6374 20.5587 39.3187 18.777C40.9247 17.0707 42.9447 16.2175 45.3788 16.2175C47.9132 16.2175 49.8831 17.1083 51.2883 18.89ZM45.4164 19.7557C44.1617 19.7557 43.1831 20.1697 42.4805 20.9978C41.7779 21.8008 41.3638 22.8422 41.2384 24.122H49.0299C49.0299 22.1396 48.4026 20.8096 47.1479 20.1321C46.6711 19.8811 46.0939 19.7557 45.4164 19.7557ZM59.6171 9.17876H64.0587V35H59.6171V9.17876ZM79.3674 16.2175C80.597 16.2175 81.7513 16.4182 82.8303 16.8197C83.9093 17.1961 84.8378 17.7858 85.6157 18.5888C87.3471 20.3454 88.2128 22.7795 88.2128 25.891C88.2128 28.9525 87.3471 31.3614 85.6157 33.118C84.0599 34.724 81.9771 35.527 79.3674 35.527C76.7577 35.527 74.6498 34.724 73.0438 33.118C71.3124 31.3865 70.4466 28.9776 70.4466 25.891C70.4466 22.7544 71.3124 20.3203 73.0438 18.5888C74.6247 17.0079 76.7326 16.2175 79.3674 16.2175ZM83.7713 25.8534C83.7713 23.9212 83.3949 22.4783 82.6421 21.5248C81.8893 20.5461 80.8353 20.0568 79.4803 20.0568C78.1503 20.0568 77.0588 20.5461 76.2056 21.5248C75.3524 22.4783 74.9258 23.9212 74.9258 25.8534C74.9258 27.7856 75.3022 29.241 76.055 30.2197C76.8329 31.1732 77.8869 31.65 79.2168 31.65C80.5468 31.65 81.6383 31.1732 82.4915 30.2197C83.3447 29.241 83.7713 27.7856 83.7713 25.8534ZM106.559 32.177C105.43 34.4103 103.698 35.527 101.365 35.527C99.0309 35.527 97.0736 34.6361 95.4927 32.8545C93.8616 30.9976 93.0461 28.6388 93.0461 25.7781C93.0461 22.9175 93.824 20.5963 95.3798 18.8147C96.9105 17.0832 98.8176 16.2175 101.101 16.2175C103.385 16.2175 105.104 17.1334 106.258 18.9652V9.17876H110.737V35H107.086L106.559 32.177ZM101.929 20.2074C100.675 20.2074 99.6206 20.7218 98.7674 21.7506C97.9393 22.7544 97.5253 24.1094 97.5253 25.8158C97.5253 27.5221 97.9519 28.9023 98.8051 29.9562C99.6582 30.985 100.737 31.4995 102.042 31.4995C103.121 31.4995 104.087 31.0729 104.94 30.2197C105.819 29.3414 106.258 28.2373 106.258 26.9073V24.536C106.208 23.2311 105.769 22.1647 104.94 21.3366C104.188 20.5838 103.184 20.2074 101.929 20.2074ZM119.253 16.6692H123.695V35H119.253V16.6692ZM118.726 10.7973C118.726 9.9943 118.965 9.36696 119.442 8.91528C119.918 8.4385 120.596 8.20011 121.474 8.20011C122.327 8.20011 122.992 8.4385 123.469 8.91528C123.971 9.36696 124.222 9.9943 124.222 10.7973C124.222 11.6003 123.971 12.2402 123.469 12.7169C122.992 13.1686 122.327 13.3945 121.474 13.3945C120.596 13.3945 119.918 13.1686 119.442 12.7169C118.965 12.2402 118.726 11.6003 118.726 10.7973ZM139.32 16.2175C140.475 16.2175 141.504 16.4182 142.407 16.8197C143.335 17.1961 144.113 17.698 144.741 18.3254C145.995 19.5298 146.736 21.048 146.961 22.8798L142.482 22.9927C142.281 22.1898 141.905 21.5248 141.353 20.9978C140.826 20.4708 140.211 20.2074 139.509 20.2074C138.806 20.2074 138.204 20.3203 137.702 20.5461C137.2 20.7469 136.761 21.0731 136.384 21.5248C135.531 22.5787 135.105 24.0341 135.105 25.891C135.105 27.748 135.506 29.1532 136.309 30.1068C137.112 31.0352 138.078 31.4995 139.207 31.4995C140.362 31.4995 141.19 31.236 141.692 30.709C142.219 30.1569 142.482 29.4167 142.482 28.4882H146.961C146.961 30.4957 146.296 32.1644 144.966 33.4944C143.611 34.8494 141.717 35.527 139.283 35.527C136.874 35.527 134.854 34.6487 133.223 32.8921C131.491 31.0101 130.626 28.6639 130.626 25.8534C130.626 22.8924 131.491 20.521 133.223 18.7394C134.854 17.0581 136.886 16.2175 139.32 16.2175ZM153.822 16.6692H158.264V35H153.822V16.6692ZM153.295 10.7973C153.295 9.9943 153.534 9.36696 154.01 8.91528C154.487 8.4385 155.165 8.20011 156.043 8.20011C156.896 8.20011 157.561 8.4385 158.038 8.91528C158.54 9.36696 158.791 9.9943 158.791 10.7973C158.791 11.6003 158.54 12.2402 158.038 12.7169C157.561 13.1686 156.896 13.3945 156.043 13.3945C155.165 13.3945 154.487 13.1686 154.01 12.7169C153.534 12.2402 153.295 11.6003 153.295 10.7973ZM177.239 34.5483C175.583 35.2007 174.278 35.527 173.325 35.527C172.371 35.527 171.53 35.414 170.803 35.1882C170.1 34.9624 169.473 34.6236 168.921 34.1719C167.766 33.1431 167.189 31.7253 167.189 29.9186V19.6804H164.63V16.7068H167.189V11.8889H171.631V16.7068H176.599V19.6804H171.631V29.768C171.631 31.2736 172.346 32.0264 173.776 32.0264C174.504 32.0264 175.445 31.8257 176.599 31.4242L177.239 34.5483ZM185.164 16.7068L189.568 29.8809L193.407 16.7068H197.924L190.923 38.3123C190.195 40.4955 189.304 42.0638 188.25 43.0174C187.221 43.9709 185.904 44.4477 184.298 44.4477C182.667 44.4477 181.036 44.0462 179.405 43.2432V39.3286C180.71 40.1567 182.027 40.5708 183.357 40.5708C184.235 40.5708 184.95 40.2195 185.502 39.5168C186.08 38.8142 186.544 37.8983 186.895 36.7691L187.46 35L180.12 16.7068H185.164Z" fill="white"/>
<rect y="42" width="202" height="3" rx="1.5" fill="url(#paint0_linear_154:93)"/>
<defs>
<linearGradient id="paint0_linear_154:93" x1="16.2686" y1="44.94" x2="134" y2="45.0915" gradientUnits="userSpaceOnUse">
<stop stop-color="white"/>
<stop offset="1" stop-color="white" stop-opacity="0"/>
</linearGradient>
</defs>
</svg>
