<svg width="19" height="20" viewBox="0 0 19 20" fill="none" xmlns="http://www.w3.org/2000/svg">
<path d="M1.00397 19.7748C0.865233 19.7746 0.728061 19.743 0.60118 19.6822C0.474299 19.6213 0.360484 19.5325 0.266974 19.4214C0.171772 19.3113 0.0991273 19.1806 0.0538026 19.0378C0.00847783 18.8951 -0.00850272 18.7436 0.0039741 18.5933L0.248974 15.673L11.567 3.40882L15.104 7.24179L3.78897 19.5049L1.09497 19.7705C1.06472 19.7735 1.03435 19.775 1.00397 19.7748ZM15.81 6.47541L12.274 2.64244L14.395 0.343309C14.4878 0.242524 14.5981 0.16257 14.7195 0.108019C14.8409 0.0534687 14.971 0.0253906 15.1025 0.0253906C15.2339 0.0253906 15.364 0.0534687 15.4854 0.108019C15.6068 0.16257 15.7171 0.242524 15.81 0.343309L17.931 2.64244C18.0239 2.74311 18.0977 2.86266 18.148 2.99426C18.1983 3.12585 18.2242 3.26691 18.2242 3.40936C18.2242 3.55181 18.1983 3.69287 18.148 3.82446C18.0977 3.95605 18.0239 4.07561 17.931 4.17628L15.811 6.47433L15.81 6.47541Z" fill="white" fill-opacity="0.53"/>
</svg>
