<svg width="14" height="16" viewBox="0 0 14 16" fill="none" xmlns="http://www.w3.org/2000/svg">
<path d="M0.77126 16C0.664679 15.9998 0.559302 15.9742 0.461831 15.9249C0.36436 15.8756 0.276927 15.8037 0.205091 15.7137C0.131957 15.6245 0.0761504 15.5186 0.0413315 15.4029C0.00651273 15.2873 -0.00653185 15.1646 0.00305294 15.0428L0.191263 12.6769L8.88583 2.74108L11.603 5.84636L2.91072 15.7813L0.841166 15.9965C0.817927 15.9989 0.794598 16.0001 0.77126 16V16ZM12.1453 5.22548L9.42895 2.1202L11.0583 0.257561C11.1297 0.175911 11.2144 0.111136 11.3076 0.0669417C11.4009 0.0227475 11.5009 0 11.6018 0C11.7028 0 11.8027 0.0227475 11.896 0.0669417C11.9893 0.111136 12.074 0.175911 12.1453 0.257561L13.7747 2.1202C13.8461 2.20176 13.9028 2.29862 13.9414 2.40523C13.9801 2.51184 14 2.62611 14 2.74152C14 2.85693 13.9801 2.97121 13.9414 3.07782C13.9028 3.18443 13.8461 3.28128 13.7747 3.36284L12.1461 5.2246L12.1453 5.22548V5.22548Z" fill="#363636"/>
</svg>
