<svg width="111" height="105" viewBox="0 0 111 105" fill="none" xmlns="http://www.w3.org/2000/svg">
<rect width="110.418" height="104.568" rx="1.46249" fill="#454545"/>
<path d="M69.4518 59.4979V34.457C69.4502 34.1151 69.3697 33.7779 69.2162 33.4705C69.0627 33.1631 68.8403 32.8934 68.5654 32.6814C68.2944 32.4674 67.9777 32.3155 67.6386 32.2367C67.2995 32.1579 66.9466 32.1543 66.6059 32.2261L45.6112 36.779C45.0929 36.893 44.6301 37.1763 44.2992 37.582C43.9683 37.9877 43.7893 38.4914 43.7917 39.0099V57.9954C42.1992 57.2618 40.4058 57.0518 38.6807 57.397C36.9556 57.7422 35.3917 58.624 34.2236 59.9101C33.0555 61.1961 32.3462 62.8171 32.2021 64.5299C32.058 66.2427 32.4869 67.9548 33.4245 69.4096C34.3621 70.8643 35.7577 71.9832 37.4021 72.5983C39.0464 73.2134 40.8508 73.2916 42.5446 72.8212C44.2384 72.3508 45.7302 71.3571 46.7962 69.9892C47.8622 68.6213 48.445 66.953 48.4571 65.2345C48.4813 64.8403 48.4813 64.445 48.4571 64.0508V40.8311L64.7863 37.3026V53.4426C63.1929 52.7084 61.3985 52.4986 59.6725 52.8446C57.9465 53.1906 56.3821 54.0737 55.2143 55.3613C54.0465 56.6489 53.3382 58.2715 53.1959 59.9854C53.0536 61.6992 53.485 63.4119 54.4252 64.8662C55.3654 66.3204 56.7637 67.4378 58.4101 68.0504C60.0565 68.663 61.8622 68.7378 63.5559 68.2636C65.2496 67.7894 66.7399 66.7917 67.803 65.4205C68.8662 64.0492 69.4447 62.3784 69.4518 60.6589C69.474 60.2722 69.474 59.8846 69.4518 59.4979V59.4979Z" fill="#555555"/>
</svg>
