<svg width="155" height="123" viewBox="0 0 155 123" fill="none" xmlns="http://www.w3.org/2000/svg">
<rect width="155" height="123" rx="2" fill="#454545"/>
<path d="M94.9773 71.365V37.121C94.9751 36.6534 94.865 36.1923 94.6551 35.7719C94.4452 35.3515 94.141 34.9827 93.7651 34.6928C93.3944 34.4002 92.9614 34.1924 92.4976 34.0847C92.0339 33.9769 91.5513 33.972 91.0854 34.0701L62.3746 40.2963C61.6659 40.4523 61.0329 40.8397 60.5804 41.3945C60.1279 41.9493 59.8831 42.6381 59.8864 43.3472V69.3104C57.7086 68.3071 55.2562 68.02 52.897 68.492C50.5378 68.9641 48.3991 70.17 46.8017 71.9287C45.2043 73.6874 44.2344 75.9042 44.0373 78.2464C43.8403 80.5887 44.4269 82.9302 45.709 84.9195C46.9911 86.9089 48.8997 88.439 51.1484 89.2802C53.3971 90.1214 55.8647 90.2283 58.181 89.585C60.4972 88.9417 62.5373 87.5828 63.9951 85.7122C65.453 83.8416 66.25 81.5601 66.2665 79.21C66.2995 78.6709 66.2995 78.1304 66.2665 77.5912V45.8376L88.5971 41.0123V63.0842C86.4181 62.0803 83.9642 61.7934 81.6039 62.2665C79.2435 62.7396 77.1042 63.9473 75.5071 65.7081C73.9101 67.4689 72.9415 69.6879 72.747 72.0317C72.5524 74.3755 73.1422 76.7176 74.428 78.7063C75.7138 80.6951 77.626 82.2231 79.8775 83.0608C82.129 83.8986 84.5983 84.0009 86.9144 83.3524C89.2306 82.7039 91.2687 81.3396 92.7225 79.4643C94.1764 77.5891 94.9676 75.3042 94.9773 72.9527C95.0076 72.4239 95.0076 71.8939 94.9773 71.365V71.365Z" fill="#555555"/>
</svg>
